<svg width="76" height="65" viewBox="0 0 76 65" fill="none" xmlns="http://www.w3.org/2000/svg">
<path d="M51.5 0C44.6023 11.8246 42.5603 16.8525 39.1533 28H63.9287C65.5804 25.9547 68.3503 23.0437 72.9932 19.0869C73.7432 18.4477 74.8442 19.1859 74.5645 20.1309C73.1861 24.7858 72.3938 27.7858 72.1836 30.5332L75.4287 31.5215C75.9009 31.6655 75.9009 32.3345 75.4287 32.4785L72.1836 33.4658C72.3937 36.2135 73.186 39.2136 74.5645 43.8691C74.8442 44.8141 73.7432 45.5523 72.9932 44.9131C68.3503 40.9563 65.5804 38.0453 63.9287 36H39C42.5 47.5 44.5 52.5 51.5 64.5H47.5C44.9514 61.8124 42.2339 58.907 39.5693 56H37C36.4477 56 36 55.5523 36 55C36 54.4477 36.4477 54 37 54H37.7461C35.2314 51.2278 32.8123 48.4993 30.6875 46H28C27.4477 46 27 45.5523 27 45C27 44.4477 27.4477 44 28 44H29.0107C26.1342 40.5188 24.0143 37.6512 23.2812 36H8C7.55448 36 7.13307 35.8998 6.75293 35.7256C4.50378 35.1869 0 33.8757 0 32C7.63254e-07 30.1242 4.50386 28.8121 6.75293 28.2734C7.13297 28.0993 7.55463 28 8 28H23.5244C24.4673 26.2127 26.6155 23.3717 29.4238 20H28C27.4477 20 27 19.5523 27 19C27 18.4477 27.4477 18 28 18H31.1133C33.2627 15.4866 35.6902 12.7594 38.2002 10H37C36.4477 10 36 9.55228 36 9C36 8.44772 36.4477 8 37 8H40.0293C42.5461 5.26082 45.0977 2.5333 47.5 0H51.5Z" fill="#676F7C"/>
</svg>
