<svg width="266" height="148" viewBox="0 0 266 148" fill="none" xmlns="http://www.w3.org/2000/svg">
<path d="M125.17 58.1485C125.781 58.0843 126.394 58.0669 127.01 58.0926C126.897 58.7532 126.791 59.4167 126.697 60.0835C126.253 60.0744 125.814 60.0919 125.379 60.1375C122.867 60.4016 120.394 61.5827 117.958 63.7819C115.282 66.1962 112.43 67.6131 109.406 67.9309C106.382 68.2487 103.297 67.4559 100.178 65.6505C97.3376 64.0061 94.6736 63.3648 92.1615 63.6288C89.6496 63.893 87.1778 65.0741 84.7411 67.2731C82.0658 69.6873 79.2132 71.1042 76.1894 71.4221C73.1655 71.7399 70.08 70.9472 66.9611 69.1418C64.1203 67.4975 61.457 66.8561 58.9451 67.12C56.433 67.3841 53.9606 68.5652 51.5236 70.7644C48.8482 73.1787 45.9959 74.5956 42.972 74.9134C39.9481 75.2312 36.8636 74.4384 33.7446 72.633C30.9037 70.9885 28.2398 70.3473 25.7277 70.6113C23.2157 70.8754 20.7439 72.0566 18.3072 74.2556C15.6318 76.6699 12.7785 78.0869 9.7546 78.4047C6.73078 78.7224 3.646 77.9296 0.527206 76.1243L1.02843 75.2596L1.52955 74.3939C4.37016 76.0381 7.03367 76.6796 9.54554 76.4157C12.0576 76.1516 14.5301 74.9703 16.967 72.7713C19.6424 70.3569 22.4947 68.9402 25.5186 68.6223C28.5426 68.3044 31.627 69.0973 34.746 70.9027C37.5868 72.5471 40.2509 73.1884 42.763 72.9244C45.275 72.6603 47.7475 71.4791 50.1844 69.28C52.8598 66.8656 55.7121 65.4488 58.736 65.131C61.76 64.8132 64.8445 65.6059 67.9634 67.4114C70.8042 69.0557 73.4684 69.6971 75.9804 69.4331C78.4922 69.169 80.9642 67.9877 83.4008 65.7888C86.0762 63.3745 88.9286 61.9577 91.9525 61.6398C94.9765 61.322 98.0618 62.1146 101.181 63.9201C104.021 65.5643 106.685 66.2058 109.197 65.9419C111.709 65.6779 114.181 64.4966 116.618 62.2975C119.294 59.8831 122.146 58.4664 125.17 58.1485Z" fill="#676F7C"/>
<path d="M93.7535 78.7749C96.7775 78.457 99.8628 79.2497 102.982 81.0552C105.823 82.6994 108.486 83.3409 110.998 83.077C113.51 82.8129 115.982 81.6318 118.419 79.4326C120.867 77.2235 123.463 75.8519 126.204 75.3907C126.254 76.0594 126.316 76.7252 126.386 77.3885C124.147 77.7988 121.938 78.9499 119.759 80.917C117.083 83.3313 114.231 84.7482 111.207 85.066C108.183 85.3838 105.098 84.591 101.98 82.7856C99.1386 81.1412 96.4747 80.4999 93.9626 80.7639C91.4506 81.028 88.9788 82.2092 86.5421 84.4082C83.8668 86.8225 81.0143 88.2393 77.9905 88.5572C74.9665 88.875 71.8811 88.0824 68.7621 86.2769C65.9214 84.6326 63.2581 83.9911 60.7461 84.2551C58.234 84.5191 55.7616 85.7003 53.3247 87.8994C50.6492 90.3139 47.797 91.7307 44.773 92.0485C41.7491 92.3663 38.6646 91.5735 35.5457 89.7681C32.7047 88.1236 30.0408 87.4824 27.5287 87.7464C25.0167 88.0105 22.545 89.1917 20.1082 91.3906C17.4328 93.8051 14.5796 95.2219 11.5556 95.5398C8.53175 95.8575 5.44709 95.0648 2.32823 93.2594L2.82935 92.3937L3.33057 91.5289C6.17125 93.1732 8.83465 93.8146 11.3466 93.5507C13.8586 93.2867 16.3311 92.1055 18.768 89.9064C21.4434 87.492 24.2957 86.0752 27.3196 85.7573C30.3436 85.4395 33.4281 86.2324 36.547 88.0377C39.3879 89.6822 42.0519 90.3235 44.564 90.0594C47.0761 89.7954 49.5485 88.6143 51.9854 86.4151C54.6609 84.0007 57.5131 82.5839 60.5371 82.2661C63.561 81.9483 66.6455 82.741 69.7644 84.5464C72.6053 86.1909 75.2693 86.8322 77.7814 86.5682C80.2933 86.304 82.7651 85.1229 85.2019 82.9239C87.8772 80.5096 90.7296 79.0928 93.7535 78.7749Z" fill="#676F7C"/>
<path d="M128.772 92.4187C129.063 92.3881 129.355 92.3702 129.647 92.3601C129.873 93.0296 130.109 93.6944 130.354 94.3548C129.891 94.343 129.434 94.3602 128.981 94.4077C126.469 94.6718 123.996 95.8529 121.559 98.0521C118.884 100.466 116.032 101.883 113.008 102.201C109.984 102.519 106.899 101.726 103.78 99.9207C100.94 98.2763 98.2756 97.635 95.7635 97.899C93.2516 98.1632 90.7797 99.3443 88.343 101.543C85.6676 103.958 82.8152 105.374 79.7914 105.692C76.7674 106.01 73.682 105.218 70.563 103.412C67.7223 101.768 65.059 101.126 62.547 101.39C60.0349 101.654 57.5625 102.835 55.1256 105.035C52.4501 107.449 49.5979 108.866 46.5739 109.184C43.55 109.501 40.4655 108.709 37.3466 106.903C34.5056 105.259 31.8417 104.617 29.3296 104.882C26.8177 105.146 24.3459 106.327 21.9091 108.526C19.2337 110.94 16.3805 112.357 13.3565 112.675C10.3327 112.993 7.248 112.2 4.12913 110.395L4.63025 109.529L5.13148 108.664C7.97215 110.308 10.6356 110.95 13.1475 110.686C15.6595 110.422 18.132 109.241 20.5689 107.042C23.2443 104.627 26.0966 103.21 29.1205 102.892C32.1445 102.575 35.229 103.368 38.3479 105.173C41.1888 106.817 43.8528 107.459 46.3649 107.195C48.877 106.931 51.3494 105.749 53.7863 103.55C56.4618 101.136 59.314 99.719 62.338 99.4012C65.3619 99.0834 68.4464 99.8762 71.5653 101.682C74.4062 103.326 77.0702 103.967 79.5823 103.703C82.0942 103.439 84.566 102.258 87.0028 100.059C89.6781 97.6447 92.5306 96.2279 95.5544 95.91C98.5784 95.5922 101.664 96.3849 104.783 98.1903C107.623 99.8346 110.287 100.476 112.799 100.212C115.311 99.9481 117.783 98.767 120.22 96.5677C122.896 94.1533 125.748 92.7366 128.772 92.4187Z" fill="#676F7C"/>
<path d="M130.573 109.554C133.597 109.236 136.681 110.029 139.8 111.834C139.84 111.857 139.881 111.879 139.921 111.902C140.78 113.049 141.673 114.169 142.598 115.26C141.339 114.867 140.071 114.301 138.799 113.565C135.958 111.92 133.294 111.279 130.782 111.543C128.27 111.807 125.797 112.988 123.36 115.187C120.685 117.602 117.833 119.018 114.809 119.336C111.785 119.654 108.7 118.861 105.581 117.056C102.741 115.412 100.077 114.77 97.5645 115.034C95.0526 115.298 92.5807 116.479 90.144 118.678C87.4687 121.093 84.6163 122.51 81.5924 122.827C78.5684 123.145 75.483 122.353 72.364 120.547C69.5234 118.903 66.8599 118.261 64.348 118.525C61.836 118.789 59.3635 119.971 56.9266 122.17C54.2511 124.584 51.399 126.001 48.375 126.319C45.351 126.637 42.2666 125.844 39.1476 124.038C36.3067 122.394 33.6427 121.753 31.1306 122.017C28.6187 122.281 26.1469 123.462 23.7102 125.661C21.0347 128.075 18.1816 129.492 15.1576 129.81C12.1337 130.128 9.04901 129.335 5.93016 127.53L6.43138 126.665L6.9325 125.799C9.77317 127.443 12.4366 128.085 14.9485 127.821C17.4606 127.557 19.933 126.376 22.3699 124.177C25.0453 121.762 27.8977 120.346 30.9216 120.028C33.9455 119.71 37.0301 120.503 40.149 122.308C42.9899 123.952 45.6538 124.594 48.1659 124.33C50.6781 124.066 53.1504 122.885 55.5874 120.685C58.2627 118.271 61.1151 116.854 64.139 116.536C67.1629 116.219 70.2475 117.011 73.3664 118.817C76.2072 120.461 78.8713 121.102 81.3833 120.838C83.8953 120.574 86.367 119.393 88.8038 117.194C91.4791 114.78 94.3316 113.363 97.3554 113.045C100.379 112.727 103.465 113.52 106.584 115.325C109.424 116.97 112.088 117.611 114.6 117.347C117.112 117.083 119.584 115.902 122.021 113.703C124.697 111.288 127.549 109.872 130.573 109.554Z" fill="#676F7C"/>
<path d="M132.374 126.689C135.398 126.371 138.482 127.164 141.601 128.969C144.442 130.614 147.106 131.255 149.618 130.991C151.949 130.746 154.245 129.709 156.511 127.804C157.082 128.194 157.658 128.578 158.24 128.952C155.604 131.292 152.8 132.668 149.827 132.98C146.803 133.298 143.719 132.505 140.6 130.7C137.759 129.055 135.095 128.414 132.583 128.678C130.071 128.942 127.598 130.123 125.161 132.322C122.486 134.737 119.634 136.154 116.61 136.471C113.586 136.789 110.501 135.996 107.382 134.191C104.542 132.547 101.877 131.905 99.3654 132.169C96.8535 132.433 94.3816 133.615 91.9449 135.813C89.2696 138.228 86.4172 139.645 83.3933 139.963C80.3693 140.28 77.2839 139.488 74.1649 137.682C71.3243 136.038 68.6608 135.396 66.1489 135.66C63.6369 135.924 61.1644 137.106 58.7275 139.305C56.052 141.719 53.1999 143.136 50.1759 143.454C47.1519 143.772 44.0675 142.979 40.9485 141.173C38.1076 139.529 35.4436 138.888 32.9315 139.152C30.4196 139.416 27.9477 140.597 25.5111 142.796C22.8356 145.21 19.9825 146.627 16.9585 146.945C13.9346 147.263 10.8499 146.47 7.73106 144.665L8.23229 143.8L8.73341 142.934C11.5741 144.579 14.2374 145.22 16.7494 144.956C19.2615 144.692 21.7339 143.511 24.1708 141.312C26.8462 138.897 29.6986 137.481 32.7225 137.163C35.7464 136.845 38.831 137.638 41.9499 139.443C44.7908 141.088 47.4547 141.729 49.9668 141.465C52.479 141.201 54.9513 140.02 57.3883 137.82C60.0636 135.406 62.916 133.989 65.9399 133.671C68.9638 133.354 72.0484 134.146 75.1673 135.952C78.0082 137.596 80.6721 138.238 83.1842 137.973C85.6962 137.709 88.1679 136.528 90.6047 134.329C93.28 131.915 96.1325 130.498 99.1563 130.18C102.18 129.862 105.266 130.655 108.385 132.46C111.225 134.105 113.889 134.746 116.401 134.482C118.913 134.218 121.385 133.037 123.822 130.838C126.498 128.424 129.35 127.007 132.374 126.689Z" fill="#676F7C"/>
<path fill-rule="evenodd" clip-rule="evenodd" d="M196 0C234.66 0 266 31.3401 266 70C266 108.66 234.66 140 196 140C157.34 140 126 108.66 126 70C126 31.3401 157.34 0 196 0ZM196 5C160.101 5 131 34.1015 131 70C131 105.899 160.101 135 196 135C231.899 135 261 105.899 261 70C261 34.1015 231.899 5 196 5Z" fill="#C83E21"/>
<circle cx="196" cy="70" r="61.5" stroke="#C83E21"/>
<path d="M225.701 28.0455C225.261 27.1824 226.182 26.2607 227.046 26.7005L228.511 27.4472C228.897 27.6439 229.366 27.5697 229.672 27.2633L230.835 26.1003C231.52 25.4153 232.682 26.007 232.53 26.9638L232.273 28.5884C232.205 29.0163 232.42 29.4392 232.806 29.6358L234.272 30.3826C235.135 30.8224 234.931 32.1097 233.974 32.2613L232.35 32.5186C231.922 32.5864 231.586 32.922 231.519 33.3498L231.261 34.9744C231.11 35.9312 229.822 36.1351 229.383 35.272L228.636 33.8064C228.439 33.4204 228.016 33.205 227.588 33.2727L225.964 33.53C225.007 33.6816 224.415 32.5202 225.1 31.8352L226.263 30.6722C226.57 30.3658 226.644 29.8971 226.447 29.5111L225.701 28.0455Z" fill="#C83E21"/>
<path d="M156.701 104.046C156.261 103.182 157.182 102.261 158.046 102.701L159.511 103.447C159.897 103.644 160.366 103.57 160.672 103.263L161.835 102.1C162.52 101.415 163.682 102.007 163.53 102.964L163.273 104.588C163.205 105.016 163.42 105.439 163.806 105.636L165.272 106.383C166.135 106.822 165.931 108.11 164.974 108.261L163.35 108.519C162.922 108.586 162.586 108.922 162.519 109.35L162.261 110.974C162.11 111.931 160.822 112.135 160.383 111.272L159.636 109.806C159.439 109.42 159.016 109.205 158.588 109.273L156.964 109.53C156.007 109.682 155.415 108.52 156.1 107.835L157.263 106.672C157.57 106.366 157.644 105.897 157.447 105.511L156.701 104.046Z" fill="#C83E21"/>
<path d="M196 30C218.091 30 236 47.9086 236 70C236 92.0914 218.091 110 196 110C173.909 110 156 92.0914 156 70C156 47.9086 173.909 30 196 30ZM178 48C174.686 48 172 50.6863 172 54C172 57.3137 174.686 60 178 60C178.484 60 178.954 59.9402 179.404 59.832L176.008 63.6064C174.899 64.8377 174.998 66.7341 176.229 67.8428C177.461 68.9513 179.357 68.852 180.466 67.6211L184.218 63.4531C184.244 63.477 184.27 63.5013 184.298 63.5244L205.942 81.6865C202.921 84.1324 199.459 85.5147 196.198 85.6943C196.34 85.4133 196.487 85.1648 196.633 84.9463C196.921 84.515 196.546 83.487 196.031 83.4268C192.299 82.9903 188.827 81.4568 187.115 80.5967C186.71 80.393 186.251 80.7743 186.406 81.2002C187.465 84.0893 190.608 91.2985 196.048 92.7451C196.549 92.878 196.863 92.0959 196.541 91.6895C196.029 91.0444 195.524 90.1421 195.288 88.9424C195.278 88.891 195.276 88.836 195.283 88.7842C195.295 88.6987 195.307 88.6142 195.32 88.5312C200.164 89.7656 205.706 88.4555 210.119 84.8877C211.239 85.2352 212.507 84.9045 213.308 83.9502C214.029 83.0906 214.184 81.9464 213.815 80.9658C217.261 76.1577 218.208 70.3526 216.698 65.4834C217.53 65.7499 218.188 66.1431 218.689 66.541C219.096 66.8629 219.878 66.5489 219.745 66.0479C218.299 60.6084 211.089 57.4647 208.2 56.4062C207.774 56.2505 207.393 56.7099 207.597 57.1152C208.457 58.8272 209.99 62.2987 210.427 66.0312C210.487 66.5465 211.515 66.9211 211.946 66.6328C212.352 66.3613 212.861 66.0862 213.491 65.8486C213.746 69.5146 212.579 73.6266 210.03 77.2832L188.233 58.9941L192.511 54.2441C193.619 53.0129 193.519 51.1164 192.288 50.0078C191.057 48.8992 189.16 48.9982 188.052 50.2295L183.946 54.7891C183.98 54.5308 184 54.2676 184 54C184 50.6863 181.314 48 178 48ZM178 51C179.657 51 181 52.3431 181 54C181 55.6569 179.657 57 178 57C176.343 57 175 55.6569 175 54C175 52.3431 176.343 51 178 51Z" fill="#C83E21"/>
<circle cx="196" cy="70" r="42.5" stroke="#C83E21"/>
</svg>
