<svg width="142" height="83" viewBox="0 0 142 83" fill="none" xmlns="http://www.w3.org/2000/svg">
<path d="M-25 8.04058C-19.4333 12.0946 -13.8667 12.0946 -8.3 8.04058C-2.73333 3.98652 2.83333 3.98652 8.4 8.04058C13.9667 12.0946 19.5333 12.0946 25.1 8.04058C30.6667 3.98652 36.2333 3.98652 41.8 8.04058C47.3667 12.0946 52.9333 12.0946 58.5 8.04058C64.0667 3.98652 69.6333 3.98652 75.2 8.04058C80.7667 12.0946 86.3333 12.0946 91.9 8.04058C97.4667 3.98652 103.033 3.98652 108.6 8.04058C114.167 12.0946 119.733 12.0946 125.3 8.04058C130.867 3.98652 136.433 3.98652 142 8.04058" stroke="#676F7C" stroke-width="2"/>
<path d="M-25 25.2703C-19.4333 29.3244 -13.8667 29.3244 -8.3 25.2703C-2.73333 21.2163 2.83333 21.2163 8.4 25.2703C13.9667 29.3244 19.5333 29.3244 25.1 25.2703C30.6667 21.2163 36.2333 21.2163 41.8 25.2703C47.3667 29.3244 52.9333 29.3244 58.5 25.2703C64.0667 21.2163 69.6333 21.2163 75.2 25.2703C80.7667 29.3244 86.3333 29.3244 91.9 25.2703C97.4667 21.2163 103.033 21.2163 108.6 25.2703C114.167 29.3244 119.733 29.3244 125.3 25.2703C130.867 21.2163 136.433 21.2163 142 25.2703" stroke="#676F7C" stroke-width="2"/>
<path d="M-25 42.5C-19.4333 46.5541 -13.8667 46.5541 -8.3 42.5C-2.73333 38.446 2.83333 38.446 8.4 42.5C13.9667 46.5541 19.5333 46.5541 25.1 42.5C30.6667 38.446 36.2333 38.446 41.8 42.5C47.3667 46.5541 52.9333 46.5541 58.5 42.5C64.0667 38.446 69.6333 38.446 75.2 42.5C80.7667 46.5541 86.3333 46.5541 91.9 42.5C97.4667 38.446 103.033 38.446 108.6 42.5C114.167 46.5541 119.733 46.5541 125.3 42.5C130.867 38.446 136.433 38.446 142 42.5" stroke="#676F7C" stroke-width="2"/>
<path d="M-25 59.7298C-19.4333 63.7838 -13.8667 63.7838 -8.3 59.7298C-2.73333 55.6757 2.83333 55.6757 8.4 59.7298C13.9667 63.7838 19.5333 63.7838 25.1 59.7298C30.6667 55.6757 36.2333 55.6757 41.8 59.7298C47.3667 63.7838 52.9333 63.7838 58.5 59.7298C64.0667 55.6757 69.6333 55.6757 75.2 59.7298C80.7667 63.7838 86.3333 63.7838 91.9 59.7298C97.4667 55.6757 103.033 55.6757 108.6 59.7298C114.167 63.7838 119.733 63.7838 125.3 59.7298C130.867 55.6757 136.433 55.6757 142 59.7298" stroke="#676F7C" stroke-width="2"/>
<path d="M-25 76.9595C-19.4333 81.0135 -13.8667 81.0135 -8.3 76.9595C-2.73333 72.9054 2.83333 72.9054 8.4 76.9595C13.9667 81.0135 19.5333 81.0135 25.1 76.9595C30.6667 72.9054 36.2333 72.9054 41.8 76.9595C47.3667 81.0135 52.9333 81.0135 58.5 76.9595C64.0667 72.9054 69.6333 72.9054 75.2 76.9595C80.7667 81.0135 86.3333 81.0135 91.9 76.9595C97.4667 72.9054 103.033 72.9054 108.6 76.9595C114.167 81.0135 119.733 81.0135 125.3 76.9595C130.867 72.9054 136.433 72.9054 142 76.9595" stroke="#676F7C" stroke-width="2"/>
</svg>
