<svg width="142" height="85" viewBox="0 0 142 85" fill="none" xmlns="http://www.w3.org/2000/svg">
<mask id="mask0_10_151" style="mask-type:alpha" maskUnits="userSpaceOnUse" x="0" y="0" width="142" height="85">
<rect width="142" height="85" fill="#060D0C"/>
</mask>
<g mask="url(#mask0_10_151)">
<path d="M-25 8C-19.4333 12 -13.8667 12 -8.3 8C-2.73333 4 2.83333 4 8.4 8C13.9667 12 19.5333 12 25.1 8C30.6667 4 36.2333 4 41.8 8C47.3667 12 52.9333 12 58.5 8C64.0667 4 69.6333 4 75.2 8C80.7667 12 86.3333 12 91.9 8C97.4667 4 103.033 4 108.6 8C114.167 12 119.733 12 125.3 8C130.867 4 136.433 4 142 8" stroke="#676F7C" stroke-width="2"/>
<path d="M-25 25C-19.4333 29 -13.8667 29 -8.3 25C-2.73333 21 2.83333 21 8.4 25C13.9667 29 19.5333 29 25.1 25C30.6667 21 36.2333 21 41.8 25C47.3667 29 52.9333 29 58.5 25C64.0667 21 69.6333 21 75.2 25C80.7667 29 86.3333 29 91.9 25C97.4667 21 103.033 21 108.6 25C114.167 29 119.733 29 125.3 25C130.867 21 136.433 21 142 25" stroke="#676F7C" stroke-width="2"/>
<path d="M-25 42C-19.4333 46 -13.8667 46 -8.3 42C-2.73333 38 2.83333 38 8.4 42C13.9667 46 19.5333 46 25.1 42C30.6667 38 36.2333 38 41.8 42C47.3667 46 52.9333 46 58.5 42C64.0667 38 69.6333 38 75.2 42C80.7667 46 86.3333 46 91.9 42C97.4667 38 103.033 38 108.6 42C114.167 46 119.733 46 125.3 42C130.867 38 136.433 38 142 42" stroke="#676F7C" stroke-width="2"/>
<path d="M-25 59C-19.4333 63 -13.8667 63 -8.3 59C-2.73333 55 2.83333 55 8.4 59C13.9667 63 19.5333 63 25.1 59C30.6667 55 36.2333 55 41.8 59C47.3667 63 52.9333 63 58.5 59C64.0667 55 69.6333 55 75.2 59C80.7667 63 86.3333 63 91.9 59C97.4667 55 103.033 55 108.6 59C114.167 63 119.733 63 125.3 59C130.867 55 136.433 55 142 59" stroke="#676F7C" stroke-width="2"/>
<path d="M-25 76C-19.4333 80 -13.8667 80 -8.3 76C-2.73333 72 2.83333 72 8.4 76C13.9667 80 19.5333 80 25.1 76C30.6667 72 36.2333 72 41.8 76C47.3667 80 52.9333 80 58.5 76C64.0667 72 69.6333 72 75.2 76C80.7667 80 86.3333 80 91.9 76C97.4667 72 103.033 72 108.6 76C114.167 80 119.733 80 125.3 76C130.867 72 136.433 72 142 76" stroke="#676F7C" stroke-width="2"/>
</g>
</svg>
