<svg xmlns="http://www.w3.org/2000/svg" version="1.1" xmlns:xlink="http://www.w3.org/1999/xlink" width="140" height="140"><svg xmlns="http://www.w3.org/2000/svg" fill="none" viewBox="21 21 140 140">
<path fill-rule="evenodd" clip-rule="evenodd" d="M90.9993 21.002C129.659 21.002 160.999 52.342 160.999 91.002C160.999 129.662 129.659 161.002 90.9993 161.002C52.3393 161.002 20.9993 129.662 20.9993 91.002C20.9993 52.342 52.3393 21.002 90.9993 21.002ZM90.9993 26.002C55.1008 26.002 25.9993 55.1034 25.9993 91.002C25.9993 126.9 55.1008 156.002 90.9993 156.002C126.898 156.002 155.999 126.9 155.999 91.002C155.999 55.1034 126.898 26.002 90.9993 26.002Z" fill="#C83E21"></path>
<circle cx="90.9993" cy="91.002" r="61.5" stroke="#C83E21"></circle>
<path d="M120.7 49.0475C120.26 48.1843 121.182 47.2627 122.045 47.7025L123.511 48.4492C123.897 48.6459 124.365 48.5716 124.672 48.2653L125.835 47.1022C126.52 46.4172 127.681 47.009 127.53 47.9658L127.272 49.5904C127.205 50.0182 127.42 50.4411 127.806 50.6378L129.272 51.3845C130.135 51.8243 129.931 53.1117 128.974 53.2632L127.35 53.5205C126.922 53.5883 126.586 53.9239 126.518 54.3518L126.261 55.9764C126.109 56.9332 124.822 57.1371 124.382 56.2739L123.636 54.8084C123.439 54.4224 123.016 54.2069 122.588 54.2747L120.963 54.532C120.007 54.6835 119.415 53.5222 120.1 52.8372L121.263 51.6741C121.569 51.3678 121.644 50.899 121.447 50.513L120.7 49.0475Z" fill="#C83E21"></path>
<path d="M51.7001 125.048C51.2603 124.184 52.1819 123.263 53.045 123.703L54.5106 124.449C54.8966 124.646 55.3654 124.572 55.6717 124.265L56.8348 123.102C57.5198 122.417 58.6811 123.009 58.5296 123.966L58.2723 125.59C58.2045 126.018 58.42 126.441 58.806 126.638L60.2715 127.385C61.1347 127.824 60.9308 129.112 59.974 129.263L58.3494 129.521C57.9215 129.588 57.5859 129.924 57.5181 130.352L57.2608 131.977C57.1093 132.933 55.8219 133.137 55.3821 132.274L54.6354 130.809C54.4387 130.422 54.0158 130.207 53.5879 130.275L51.9634 130.532C51.0066 130.684 50.4148 129.522 51.0998 128.837L52.2629 127.674C52.5692 127.368 52.6435 126.899 52.4468 126.513L51.7001 125.048Z" fill="#C83E21"></path>
<path d="M90.9995 51.002C113.091 51.002 131 68.9106 131 91.002C131 113.093 113.091 131.002 90.9995 131.002C68.9081 131.002 50.9995 113.093 50.9995 91.002C50.9995 68.9106 68.9081 51.002 90.9995 51.002ZM72.9995 69.002C69.6858 69.002 66.9995 71.6882 66.9995 75.002C66.9995 78.3157 69.6858 81.002 72.9995 81.002C73.4833 81.002 73.9531 80.9421 74.4038 80.834L71.0073 84.6084C69.8987 85.8397 69.9977 87.7361 71.229 88.8447C72.4602 89.9533 74.3566 89.854 75.4653 88.623L79.2173 84.4551C79.2437 84.4789 79.2699 84.5033 79.2974 84.5264L100.942 102.688C97.9202 105.134 94.4588 106.517 91.1978 106.696C91.3394 106.415 91.4862 106.167 91.6323 105.948C91.9206 105.517 91.546 104.489 91.0308 104.429C87.2982 103.992 83.8267 102.459 82.1147 101.599C81.7094 101.395 81.25 101.776 81.4058 102.202C82.4642 105.091 85.608 112.3 91.0474 113.747C91.5484 113.88 91.8624 113.098 91.5405 112.691C91.0289 112.046 90.5234 111.144 90.2876 109.944C90.2775 109.893 90.2756 109.838 90.2827 109.786C90.2945 109.701 90.3066 109.616 90.3198 109.533C95.1632 110.768 100.705 109.457 105.119 105.89C106.238 106.237 107.506 105.906 108.307 104.952C109.028 104.093 109.183 102.948 108.815 101.968C112.261 97.1596 113.207 91.3546 111.698 86.4854C112.529 86.7519 113.187 87.1451 113.689 87.543C114.095 87.8648 114.877 87.5508 114.745 87.0498C113.298 81.6104 106.089 78.4666 103.2 77.4082C102.774 77.2525 102.393 77.7119 102.596 78.1172C103.456 79.8292 104.99 83.3006 105.426 87.0332C105.487 87.5484 106.515 87.9231 106.946 87.6348C107.352 87.3632 107.861 87.0882 108.491 86.8506C108.745 90.5166 107.578 94.6286 105.03 98.2852L83.2329 79.9961L87.5103 75.2461C88.6188 74.0148 88.5188 72.1184 87.2876 71.0098C86.0563 69.9012 84.1599 70.0002 83.0513 71.2314L78.9458 75.791C78.9797 75.5327 78.9995 75.2695 78.9995 75.002C78.9995 71.6882 76.3132 69.002 72.9995 69.002ZM72.9995 72.002C74.6564 72.002 75.9995 73.3451 75.9995 75.002C75.9995 76.6588 74.6564 78.002 72.9995 78.002C71.3427 78.002 69.9995 76.6588 69.9995 75.002C69.9995 73.3451 71.3427 72.002 72.9995 72.002Z" fill="#C83E21"></path>
<circle cx="90.9995" cy="91.002" r="42.5" stroke="#C83E21"></circle>
<path d="M96.0351 149.199C95.8763 149.219 95.7533 149.146 95.6662 148.982C95.5659 148.82 95.4377 148.594 95.2816 148.304C95.1254 148.014 94.9858 147.749 94.8626 147.508L89.9294 138.578C89.7569 138.263 89.5436 138.001 89.2896 137.79C89.0341 137.565 88.7145 137.423 88.3311 137.362C88.1658 137.328 88.027 137.292 87.9147 137.252C87.814 137.197 87.7572 137.116 87.7444 137.01C87.7331 136.918 87.7714 136.846 87.8592 136.795C87.9454 136.731 88.0547 136.691 88.1871 136.674C88.4253 136.645 88.7041 136.618 89.0234 136.593C89.3559 136.566 89.6884 136.539 90.0209 136.512C90.3534 136.485 90.6586 136.455 90.9366 136.421C91.2013 136.389 91.5049 136.345 91.8475 136.29C92.19 136.235 92.5193 136.182 92.8353 136.13C93.1646 136.076 93.4418 136.036 93.6668 136.009C93.7991 135.993 93.9281 136.004 94.0537 136.042C94.1776 136.067 94.2452 136.126 94.2565 136.219C94.2693 136.325 94.221 136.425 94.1116 136.519C94.0005 136.599 93.8605 136.663 93.6916 136.711C93.3158 136.824 93.0293 136.952 92.832 137.097C92.6463 137.227 92.5672 137.405 92.5945 137.63C92.6106 137.762 92.6457 137.885 92.6999 138C92.7541 138.114 92.7934 138.217 92.8179 138.308L96.3859 145.288C96.4204 145.351 96.4517 145.388 96.4798 145.398C96.5211 145.406 96.5552 145.355 96.5821 145.244L98.2425 138.515C98.4236 137.795 98.3982 137.254 98.1662 136.892C97.9459 136.516 97.5662 136.321 97.0271 136.305C96.8518 136.3 96.694 136.272 96.5536 136.222C96.4248 136.157 96.354 136.072 96.3411 135.966C96.3299 135.873 96.3814 135.8 96.4957 135.746C96.61 135.691 96.7399 135.655 96.8855 135.638C97.1238 135.609 97.343 135.589 97.5431 135.578C97.7417 135.554 97.941 135.536 98.1412 135.525C98.3397 135.501 98.5647 135.474 98.8162 135.443C99.2 135.397 99.5757 135.338 99.9431 135.266C100.324 135.193 100.679 135.136 101.01 135.096C101.169 135.077 101.311 135.08 101.435 135.105C101.558 135.13 101.627 135.196 101.64 135.302C101.654 135.421 101.605 135.514 101.492 135.582C101.393 135.647 101.266 135.71 101.112 135.769C100.688 135.928 100.35 136.184 100.097 136.537C99.8581 136.888 99.6631 137.328 99.5124 137.857L97.2068 146.075C97.1046 146.45 97.0001 146.805 96.8931 147.141C96.7993 147.475 96.7097 147.788 96.6244 148.08C96.5523 148.371 96.4711 148.643 96.3809 148.895C96.3525 148.993 96.3142 149.065 96.2661 149.111C96.218 149.157 96.141 149.186 96.0351 149.199ZM114.082 144.564C113.263 144.953 112.415 145.188 111.537 145.266C110.653 145.333 109.799 145.245 108.974 145.002C108.156 144.742 107.407 144.331 106.726 143.769C106.051 143.19 105.502 142.454 105.078 141.564C104.688 140.745 104.448 139.899 104.357 139.027C104.273 138.137 104.355 137.27 104.604 136.428C104.865 135.581 105.303 134.796 105.919 134.074C106.548 133.347 107.379 132.736 108.415 132.243C109.233 131.854 110.078 131.628 110.95 131.568C111.829 131.489 112.683 131.577 113.513 131.831C114.337 132.074 115.087 132.485 115.761 133.064C116.442 133.626 116.995 134.353 117.419 135.243C117.803 136.05 118.037 136.898 118.122 137.789C118.218 138.673 118.136 139.539 117.875 140.387C117.626 141.229 117.188 142.014 116.559 142.741C115.943 143.463 115.117 144.071 114.082 144.564ZM114.011 143.623C114.769 143.262 115.309 142.768 115.632 142.142C115.966 141.51 116.096 140.791 116.022 139.985C115.954 139.16 115.705 138.297 115.276 137.394C114.909 136.623 114.475 135.914 113.975 135.267C113.474 134.619 112.927 134.089 112.332 133.678C111.732 133.255 111.105 132.993 110.451 132.891C109.809 132.783 109.151 132.89 108.477 133.211C107.718 133.572 107.172 134.068 106.838 134.7C106.515 135.326 106.391 136.042 106.465 136.849C106.539 137.655 106.791 138.51 107.221 139.413C107.588 140.183 108.022 140.893 108.522 141.54C109.023 142.188 109.567 142.726 110.155 143.155C110.755 143.578 111.376 143.844 112.018 143.951C112.672 144.053 113.337 143.944 114.011 143.623ZM127.692 136.641C127.565 136.759 127.444 136.835 127.33 136.869C127.225 136.893 127.141 136.872 127.077 136.803C127.005 136.725 126.989 136.63 127.031 136.519C127.073 136.388 127.144 136.249 127.244 136.102C127.551 135.688 127.697 135.307 127.681 134.957C127.665 134.607 127.507 134.271 127.208 133.949L125.273 131.871C125.009 131.588 124.724 131.379 124.418 131.246C124.102 131.102 123.828 130.993 123.594 130.919L119.08 129.739C118.884 129.684 118.65 129.638 118.377 129.6C118.106 129.543 117.833 129.515 117.56 129.514C117.286 129.514 117.034 129.576 116.803 129.7C116.649 129.77 116.516 129.821 116.401 129.855C116.287 129.87 116.194 129.838 116.122 129.76C116.058 129.692 116.047 129.611 116.088 129.518C116.12 129.416 116.184 129.319 116.282 129.228C116.633 128.901 116.993 128.593 117.362 128.305C117.732 127.997 118.112 127.662 118.502 127.298C118.785 127.035 119.044 126.775 119.28 126.519C119.516 126.245 119.771 125.98 120.044 125.726C120.142 125.635 120.253 125.568 120.377 125.526C120.492 125.473 120.581 125.481 120.645 125.549C120.718 125.627 120.733 125.732 120.69 125.862C120.648 125.993 120.582 126.127 120.492 126.266C120.313 126.523 120.197 126.741 120.143 126.918C120.099 127.086 120.141 127.239 120.268 127.375C120.405 127.522 120.622 127.638 120.921 127.724L124.755 128.937C125.109 129.063 125.33 129.085 125.418 129.003C125.466 128.958 125.488 128.883 125.482 128.779C125.477 128.675 125.454 128.523 125.414 128.324C125.294 127.725 125.158 127.15 125.008 126.597C124.858 126.044 124.691 125.444 124.507 124.796C124.456 124.624 124.396 124.471 124.325 124.337C124.255 124.183 124.179 124.063 124.098 123.975C123.916 123.78 123.711 123.716 123.482 123.783C123.244 123.84 123.033 123.937 122.849 124.072C122.742 124.153 122.608 124.214 122.446 124.255C122.284 124.297 122.167 124.278 122.094 124.2C122.031 124.132 122.029 124.042 122.09 123.931C122.15 123.82 122.234 123.715 122.342 123.615C122.605 123.369 122.843 123.166 123.057 123.003C123.28 122.832 123.513 122.633 123.757 122.406C124.031 122.152 124.276 121.896 124.492 121.64C124.719 121.374 124.949 121.132 125.183 120.914C125.301 120.805 125.412 120.729 125.517 120.686C125.632 120.633 125.726 120.646 125.799 120.724C125.881 120.812 125.886 120.935 125.814 121.093C125.733 121.241 125.643 121.398 125.542 121.564C125.342 121.897 125.23 122.246 125.208 122.613C125.185 122.981 125.217 123.397 125.304 123.862C125.393 124.29 125.473 124.689 125.545 125.06C125.607 125.42 125.67 125.772 125.733 126.113C125.797 126.437 125.865 126.774 125.938 127.126C126.001 127.467 126.077 127.843 126.166 128.252C126.223 128.508 126.286 128.732 126.354 128.923C126.433 129.106 126.526 129.283 126.633 129.457C126.74 129.631 126.884 129.815 127.066 130.01L129.082 132.177C129.419 132.538 129.751 132.729 130.081 132.75C130.401 132.762 130.788 132.639 131.24 132.381C131.404 132.283 131.543 132.218 131.658 132.184C131.782 132.141 131.885 132.164 131.967 132.252C132.021 132.31 132.028 132.395 131.986 132.507C131.954 132.61 131.879 132.716 131.762 132.825C131.528 133.043 131.285 133.251 131.032 133.449C130.78 133.648 130.537 133.847 130.303 134.046C130.07 134.226 129.847 134.416 129.632 134.616C129.417 134.816 129.207 135.03 129 135.259C128.785 135.478 128.569 135.706 128.353 135.943C128.146 136.191 127.926 136.423 127.692 136.641ZM136.94 127.807C136.86 127.945 136.77 128.047 136.67 128.113C136.582 128.185 136.492 128.195 136.4 128.142C136.296 128.082 136.238 127.995 136.227 127.88C136.223 127.755 136.238 127.609 136.271 127.444C136.372 127.056 136.4 126.687 136.356 126.338C136.306 125.971 136.157 125.615 135.909 125.272C135.394 124.59 134.902 123.936 134.431 123.31C133.95 122.678 133.467 122.061 132.983 121.458C132.5 120.856 132.005 120.247 131.498 119.631C130.998 119.004 130.463 118.356 129.894 117.689C129.609 117.355 129.382 117.109 129.213 116.949C129.043 116.79 128.922 116.666 128.85 116.578C128.903 116.378 128.951 116.19 128.991 116.013C129.032 115.836 129.07 115.635 129.108 115.411C129.12 115.202 129.096 115.004 129.036 114.815C128.976 114.626 128.928 114.483 128.892 114.385C128.888 114.337 128.897 114.296 128.917 114.261C128.925 114.22 128.968 114.199 129.046 114.197C129.135 114.203 129.221 114.214 129.304 114.231C129.387 114.248 129.475 114.268 129.569 114.291C130.536 114.511 131.517 114.731 132.513 114.952C133.505 115.155 134.487 115.36 135.46 115.568C136.422 115.769 137.348 115.965 138.239 116.155C139.124 116.328 139.939 116.49 140.682 116.642C141.054 116.718 141.376 116.735 141.647 116.691C141.925 116.636 142.17 116.546 142.38 116.422C142.586 116.279 142.784 116.108 142.975 115.911C143.097 115.781 143.209 115.692 143.314 115.644C143.418 115.597 143.522 115.603 143.626 115.663C143.696 115.703 143.724 115.774 143.712 115.874C143.707 115.964 143.671 116.066 143.604 116.181C143.484 116.389 143.325 116.652 143.127 116.968C142.935 117.273 142.737 117.59 142.532 117.918C142.316 118.24 142.131 118.533 141.978 118.799C141.844 119.03 141.7 119.293 141.545 119.588C141.397 119.872 141.245 120.162 141.09 120.457C140.941 120.741 140.811 120.981 140.697 121.177C140.631 121.293 140.553 121.387 140.465 121.459C140.372 121.513 140.286 121.517 140.205 121.47C140.112 121.417 140.064 121.327 140.06 121.202C140.044 121.069 140.061 120.933 140.111 120.793C140.282 120.337 140.351 119.977 140.319 119.712C140.276 119.441 140.102 119.248 139.798 119.134C139.582 119.055 139.321 118.974 139.015 118.89C138.698 118.799 138.372 118.711 138.037 118.625C137.696 118.521 137.382 118.44 137.093 118.381C136.987 118.35 136.903 118.348 136.842 118.374C136.769 118.394 136.696 118.467 136.623 118.594L134.823 121.712C134.776 121.793 134.769 121.873 134.8 121.953C134.819 122.025 134.874 122.103 134.965 122.187C135.088 122.319 135.228 122.477 135.384 122.66C135.536 122.824 135.696 123.001 135.863 123.19C136.026 123.361 136.178 123.526 136.318 123.683C136.464 123.83 136.594 123.951 136.708 124.047C136.986 124.285 137.265 124.376 137.543 124.321C137.816 124.248 138.125 124.034 138.468 123.678C138.729 123.413 138.941 123.327 139.102 123.42C139.171 123.46 139.206 123.534 139.205 123.641C139.2 123.731 139.157 123.845 139.077 123.983C138.924 124.249 138.753 124.519 138.563 124.795C138.385 125.077 138.195 125.391 137.996 125.737C137.796 126.084 137.616 126.434 137.458 126.789C137.306 127.133 137.133 127.472 136.94 127.807ZM134.296 120.784L135.686 118.377C135.779 118.215 135.791 118.114 135.722 118.074C135.687 118.054 135.655 118.043 135.626 118.042C135.602 118.028 135.564 118.014 135.512 117.999L130.811 116.902C130.622 116.855 130.518 116.848 130.498 116.883C130.485 116.906 130.536 116.99 130.653 117.134L133.832 120.909C133.876 120.965 133.916 121.004 133.95 121.024C134.008 121.057 134.065 121.051 134.122 121.007C134.185 120.951 134.243 120.877 134.296 120.784ZM147.705 104.565C147.52 105.493 147.189 106.338 146.711 107.1C146.234 107.861 145.65 108.506 144.96 109.035C144.26 109.548 143.481 109.91 142.623 110.12C141.769 110.317 140.87 110.322 139.929 110.134C139 109.949 138.159 109.599 137.406 109.082C136.655 108.551 136.03 107.897 135.533 107.118C135.022 106.337 134.672 105.465 134.483 104.503C134.283 103.525 134.291 102.494 134.507 101.408C134.557 101.16 134.644 100.858 134.769 100.502C134.881 100.144 135.009 99.7749 135.153 99.3956C135.296 99.0163 135.44 98.671 135.583 98.3596C135.729 98.0353 135.86 97.7893 135.975 97.6219C136.032 97.5381 136.099 97.4766 136.175 97.4373C136.237 97.3954 136.322 97.3783 136.429 97.3861C136.874 97.4066 137.296 97.4362 137.696 97.4751C138.097 97.5139 138.44 97.5619 138.728 97.6192C138.833 97.64 138.918 97.6909 138.983 97.7719C139.051 97.8398 139.076 97.9196 139.058 98.0111C139.029 98.155 138.963 98.2505 138.858 98.2976C138.741 98.3422 138.618 98.3789 138.49 98.4078C138.233 98.4656 137.981 98.5377 137.733 98.6243C137.471 98.7082 137.217 98.8274 136.968 98.9819C136.812 99.0867 136.638 99.2425 136.447 99.4492C136.246 99.6403 136.058 99.902 135.883 100.234C135.708 100.566 135.57 100.988 135.469 101.498C135.325 102.217 135.347 102.894 135.533 103.529C135.706 104.162 136.016 104.726 136.461 105.223C136.906 105.719 137.441 106.138 138.066 106.48C138.678 106.82 139.344 107.061 140.063 107.204C140.966 107.384 141.804 107.442 142.578 107.378C143.338 107.312 144.018 107.141 144.617 106.866C145.202 106.588 145.684 106.215 146.063 105.747C146.442 105.279 146.696 104.717 146.826 104.064C146.92 103.593 146.927 103.214 146.849 102.926C146.759 102.623 146.674 102.402 146.593 102.263C146.504 102.096 146.351 101.943 146.134 101.805C145.916 101.667 145.652 101.56 145.341 101.484C145.223 101.461 145.073 101.431 144.89 101.394C144.709 101.345 144.528 101.302 144.345 101.265C144.164 101.216 144.015 101.179 143.897 101.156C143.753 101.127 143.624 101.129 143.509 101.16C143.383 101.176 143.275 101.243 143.184 101.361C143.069 101.46 142.96 101.595 142.858 101.765C142.744 101.932 142.654 102.112 142.588 102.303C142.513 102.478 142.457 102.623 142.42 102.738C142.389 102.827 142.33 102.917 142.244 103.009C142.145 103.098 142.043 103.132 141.938 103.111C141.833 103.09 141.764 103.029 141.73 102.927C141.698 102.812 141.691 102.715 141.706 102.637C141.766 102.336 141.834 102.03 141.909 101.719C141.987 101.395 142.064 101.077 142.14 100.766C142.218 100.441 142.287 100.129 142.347 99.8279C142.42 99.4617 142.478 99.0995 142.522 98.7412C142.569 98.3699 142.63 97.9946 142.705 97.6153C142.721 97.5369 142.763 97.4636 142.831 97.3956C142.888 97.3118 142.976 97.2817 143.093 97.3051C143.198 97.3259 143.274 97.3886 143.321 97.4931C143.368 97.5977 143.391 97.6905 143.388 97.7716C143.409 98.1429 143.479 98.4082 143.597 98.5676C143.717 98.7139 143.904 98.8327 144.158 98.924C144.435 99.0335 144.682 99.1235 144.899 99.1939C145.119 99.2512 145.353 99.3046 145.602 99.354L146.21 99.475C146.275 99.488 146.338 99.4801 146.398 99.4513C146.461 99.4094 146.53 99.3688 146.606 99.3295C146.682 99.2902 146.756 99.2575 146.829 99.2312C146.905 99.1919 146.976 99.1788 147.041 99.1918C147.12 99.2074 147.199 99.2505 147.28 99.321C147.351 99.3759 147.385 99.4778 147.383 99.6269C147.378 99.721 147.414 99.9119 147.493 100.199C147.572 100.487 147.656 100.85 147.745 101.29C147.824 101.713 147.869 102.205 147.88 102.764C147.894 103.311 147.835 103.911 147.705 104.565ZM149.745 92.0675C149.755 92.2139 149.736 92.3354 149.689 92.4321C149.641 92.5154 149.578 92.5598 149.498 92.5651C149.325 92.5767 149.187 92.4122 149.084 92.0716C148.932 91.6007 148.763 91.2713 148.577 91.0833C148.376 90.8829 148.057 90.7973 147.618 90.8267L138.578 91.4311C138.125 91.4614 137.812 91.5758 137.639 91.7745C137.464 91.9599 137.34 92.3023 137.266 92.8017C137.239 92.9906 137.194 93.1272 137.133 93.2114C137.059 93.2966 136.982 93.3419 136.902 93.3472C136.809 93.3534 136.74 93.318 136.694 93.2408C136.635 93.1512 136.6 93.0333 136.59 92.8869C136.565 92.5011 136.547 92.1348 136.537 91.7881C136.526 91.428 136.516 91.0812 136.508 90.7477C136.499 90.4142 136.482 90.0679 136.458 89.7087C136.417 89.0967 136.367 88.4519 136.309 87.7743C136.249 87.0834 136.201 86.4653 136.165 85.9198C136.122 85.4817 136.078 85.1238 136.033 84.8462C135.987 84.5553 135.962 84.3833 135.958 84.3301C135.952 84.2369 135.966 84.1425 135.999 84.0467C136.032 83.9376 136.108 83.8724 136.227 83.8511C136.662 83.7685 137.09 83.6731 137.511 83.5648C137.931 83.4565 138.301 83.3917 138.62 83.3703C138.74 83.3623 138.835 83.3894 138.906 83.4514C138.963 83.5011 138.993 83.5592 138.998 83.6257C139.002 83.6922 138.986 83.7534 138.95 83.8093C138.9 83.8661 138.83 83.9175 138.74 83.9637C138.441 84.0905 138.182 84.2081 137.962 84.3164C137.742 84.4246 137.576 84.5426 137.464 84.6703C137.29 84.8557 137.157 85.0651 137.065 85.2984C136.974 85.5316 136.939 85.8079 136.96 86.1272L137.084 87.9831C137.1 88.2225 137.188 88.4371 137.348 88.6269C137.494 88.8176 137.694 88.9045 137.947 88.8876L141.858 88.626C142.004 88.6162 142.115 88.5688 142.189 88.4836C142.263 88.3852 142.296 88.2761 142.288 88.1563L142.165 86.3204C142.141 85.9612 142.024 85.7151 141.815 85.5821C141.605 85.4358 141.323 85.321 140.97 85.2377C140.698 85.1624 140.556 85.0449 140.545 84.8853C140.541 84.8187 140.577 84.7562 140.653 84.6977C140.716 84.64 140.807 84.6072 140.927 84.5992C141.061 84.6036 141.222 84.6062 141.409 84.607C141.596 84.6079 141.783 84.6087 141.97 84.6096C142.156 84.5971 142.323 84.586 142.469 84.5762C142.629 84.5656 142.808 84.5536 143.008 84.5402C143.207 84.5136 143.406 84.4936 143.605 84.4802C143.791 84.4545 143.949 84.4305 144.081 84.4083C144.227 84.3852 144.341 84.3909 144.423 84.4255C144.505 84.4468 144.548 84.4973 144.554 84.5772C144.568 84.79 144.392 84.9555 144.026 85.0735C143.66 85.2048 143.389 85.3499 143.213 85.5087C143.036 85.6675 142.957 85.8733 142.974 86.126L143.099 88.0018C143.111 88.1748 143.153 88.3056 143.225 88.3943C143.298 88.483 143.428 88.5211 143.614 88.5086L147.406 88.2551C147.845 88.2258 148.144 88.1122 148.305 87.9144C148.465 87.7165 148.533 87.4247 148.507 87.0389L148.397 85.4026C148.375 85.07 148.322 84.7729 148.238 84.5113C148.152 84.2363 148.03 84.004 147.87 83.8142C147.696 83.5987 147.469 83.4134 147.192 83.2582C146.9 83.0907 146.582 82.9315 146.238 82.7808C146.128 82.7347 146.058 82.686 146.027 82.6345C145.984 82.584 145.96 82.5188 145.954 82.439C145.963 82.3716 146 82.3223 146.065 82.2913C146.129 82.2469 146.2 82.2221 146.28 82.2167C146.466 82.2043 146.708 82.2215 147.005 82.2685C147.302 82.3154 147.614 82.3814 147.941 82.4665C148.253 82.5392 148.545 82.6065 148.816 82.6686C148.912 82.7022 148.982 82.751 149.026 82.8149C149.084 82.8778 149.116 82.9559 149.122 83.049C149.143 83.3683 149.164 83.7811 149.185 84.2876C149.218 84.7798 149.247 85.319 149.273 85.9053C149.299 86.4915 149.325 87.0911 149.353 87.7039C149.394 88.3159 149.433 88.9013 149.47 89.46C149.489 89.7394 149.515 90.025 149.548 90.3168C149.58 90.5953 149.612 90.8804 149.645 91.1722C149.691 91.4631 149.725 91.7615 149.745 92.0675Z" fill="#C83E21"></path>
<path d="M47.1023 94.5814C47.114 94.7409 47.0359 94.8603 46.868 94.9396C46.701 95.0321 46.469 95.1495 46.172 95.2917C45.875 95.434 45.6036 95.5609 45.3578 95.6727L36.2045 100.178C35.8819 100.336 35.6093 100.536 35.3866 100.78C35.1506 101.025 34.9932 101.337 34.9143 101.717C34.8729 101.881 34.8295 102.018 34.7842 102.128C34.7245 102.226 34.6415 102.279 34.5352 102.287C34.4421 102.294 34.3722 102.252 34.3254 102.162C34.2654 102.073 34.2304 101.962 34.2206 101.829C34.203 101.589 34.189 101.31 34.1787 100.99C34.1675 100.656 34.1563 100.323 34.1451 99.9894C34.1338 99.656 34.1179 99.3497 34.0973 99.0704C34.0777 98.8045 34.0485 98.4991 34.0097 98.1544C33.9709 97.8097 33.933 97.4782 33.8962 97.1601C33.8584 96.8286 33.8311 96.5499 33.8144 96.3238C33.8046 96.1908 33.8219 96.0625 33.8663 95.9389C33.8973 95.8163 33.9594 95.7516 34.0525 95.7447C34.1589 95.7369 34.2564 95.7898 34.345 95.9036C34.4203 96.0184 34.4776 96.1612 34.517 96.3321C34.6119 96.7128 34.7271 97.0052 34.8624 97.2091C34.9835 97.4007 35.1571 97.4882 35.3831 97.4715C35.5161 97.4617 35.641 97.4324 35.7577 97.3837C35.8744 97.335 35.9788 97.3005 36.0709 97.2804L43.2123 94.0461C43.2769 94.0146 43.3148 93.9851 43.3261 93.9575C43.3365 93.9166 43.287 93.8802 43.1777 93.8481L36.5342 91.8716C35.8231 91.6567 35.2817 91.6565 34.9098 91.8711C34.5236 92.0734 34.3103 92.4435 34.2697 92.9812C34.2559 93.1561 34.2206 93.3124 34.164 93.4503C34.093 93.5759 34.0043 93.6426 33.898 93.6504C33.8049 93.6573 33.734 93.6023 33.6853 93.4856C33.6365 93.3689 33.6068 93.2374 33.596 93.0911C33.5783 92.8518 33.5688 92.6319 33.5674 92.4314C33.5527 92.232 33.5446 92.032 33.5432 91.8316C33.5285 91.6321 33.5118 91.4061 33.4931 91.1534C33.4647 90.7678 33.4234 90.3898 33.3694 90.0195C33.3143 89.6358 33.2745 89.2778 33.25 88.9453C33.2382 88.7858 33.2479 88.6447 33.2789 88.5221C33.31 88.3994 33.3787 88.3342 33.4851 88.3264C33.6048 88.3175 33.6956 88.371 33.7576 88.4867C33.8187 88.5892 33.875 88.7187 33.9267 88.8754C34.0654 89.3063 34.3052 89.6563 34.6459 89.9253C34.9856 90.181 35.416 90.3966 35.937 90.572L44.037 93.2633C44.4068 93.3831 44.7567 93.5044 45.0866 93.6271C45.4155 93.7365 45.724 93.8408 46.0121 93.9398C46.2992 94.0256 46.5668 94.1195 46.815 94.2215C46.911 94.2545 46.9809 94.2962 47.0248 94.3464C47.0686 94.3967 47.0944 94.475 47.1023 94.5814ZM48.4965 79.2026C48.2516 80.0756 47.8698 80.8686 47.3512 81.5817C46.8198 82.2912 46.1916 82.8766 45.4667 83.3379C44.7326 83.7828 43.93 84.0769 43.0588 84.2202C42.1785 84.3471 41.2633 84.2773 40.3134 84.0107C39.4404 83.7658 38.6456 83.3904 37.9289 82.8847C37.203 82.3625 36.6047 81.7307 36.1342 80.9894C35.6672 80.2352 35.3647 79.3886 35.2265 78.4497C35.092 77.498 35.1796 76.4701 35.4893 75.3661C35.7343 74.4931 36.1207 73.7083 36.6485 73.0117C37.1671 72.2986 37.7952 71.7132 38.533 71.2555C39.2579 70.7942 40.0605 70.5001 40.9409 70.3732C41.812 70.2298 42.7225 70.2915 43.6725 70.558C44.5326 70.7993 45.3257 71.1811 46.0516 71.7033C46.7811 72.2126 47.3793 72.8444 47.8463 73.5986C48.3168 74.34 48.6194 75.1865 48.754 76.1382C48.8921 77.0771 48.8063 78.0986 48.4965 79.2026ZM47.7411 78.6375C47.968 77.8288 47.9517 77.0972 47.6922 76.4427C47.4363 75.7755 46.9803 75.2044 46.3242 74.7295C45.6589 74.2381 44.8448 73.8574 43.882 73.5872C43.0604 73.3567 42.241 73.2168 41.4239 73.1676C40.6069 73.1183 39.848 73.1824 39.1474 73.3597C38.4339 73.5334 37.8236 73.833 37.3165 74.2585C36.813 74.6712 36.4603 75.2369 36.2586 75.9558C36.0317 76.7646 36.0462 77.5026 36.3021 78.1699C36.5616 78.8243 37.0194 79.389 37.6755 79.8639C38.3316 80.3388 39.1411 80.7114 40.1039 80.9815C40.9255 81.212 41.7449 81.3519 42.5619 81.4011C43.379 81.4504 44.1425 81.3946 44.8523 81.2337C45.5658 81.06 46.1743 80.7668 46.6778 80.3541C47.185 79.9286 47.5394 79.3564 47.7411 78.6375ZM52.9127 67.3647C52.8145 67.5075 52.7132 67.6078 52.6088 67.6655C52.512 67.7122 52.4251 67.7091 52.3482 67.6562C52.2603 67.5958 52.2246 67.5065 52.2411 67.3884C52.2541 67.2517 52.2933 67.1007 52.3585 66.9352C52.5686 66.4648 52.628 66.0607 52.5367 65.7228C52.4454 65.3849 52.2184 65.0914 51.8558 64.8421L49.5155 63.2332C49.1969 63.0141 48.8735 62.8727 48.5452 62.8088C48.206 62.7374 47.9145 62.6907 47.6707 62.6687L43.0077 62.4967C42.8044 62.4864 42.5658 62.4923 42.2918 62.5142C42.0144 62.5177 41.7421 62.5489 41.475 62.608C41.2078 62.667 40.975 62.7821 40.7766 62.9531C40.642 63.0547 40.5225 63.1343 40.4181 63.192C40.3103 63.2312 40.2125 63.2205 40.1246 63.1601C40.0476 63.1072 40.0191 63.031 40.0391 62.9314C40.048 62.8243 40.0902 62.7158 40.1658 62.6059C40.4377 62.2104 40.7223 61.8317 41.0197 61.4698C41.3136 61.0893 41.6116 60.6794 41.9137 60.2399C42.1328 59.9213 42.3295 59.6116 42.504 59.3108C42.6749 58.9915 42.8662 58.678 43.0777 58.3703C43.1532 58.2605 43.247 58.1712 43.3589 58.1025C43.4598 58.0263 43.5488 58.0146 43.6257 58.0675C43.7136 58.1279 43.751 58.2265 43.738 58.3631C43.7249 58.4998 43.6895 58.6454 43.6319 58.7999C43.5131 59.0903 43.4468 59.3279 43.4331 59.5127C43.4269 59.6864 43.5007 59.8261 43.6545 59.9319C43.8193 60.0452 44.0569 60.1115 44.3673 60.1307L48.3732 60.4819C48.7461 60.5279 48.9665 60.5015 49.0345 60.4026C49.0723 60.3477 49.0771 60.2701 49.0489 60.1698C49.0208 60.0695 48.9655 59.9264 48.8831 59.7403C48.6359 59.182 48.379 58.6494 48.1126 58.1427C47.8461 57.6359 47.5526 57.0862 47.2319 56.4936C47.1454 56.337 47.053 56.2007 46.9548 56.0846C46.8532 55.95 46.7529 55.8487 46.654 55.7808C46.4343 55.6297 46.22 55.6118 46.0113 55.7272C45.7915 55.835 45.6065 55.9748 45.4561 56.1464C45.3695 56.2488 45.2518 56.3377 45.1028 56.4132C44.9537 56.4888 44.8353 56.4963 44.7474 56.4359C44.6705 56.383 44.6495 56.2958 44.6846 56.1743C44.7196 56.0527 44.7786 55.9315 44.8617 55.8106C45.0657 55.514 45.2542 55.2633 45.4272 55.0587C45.6078 54.8431 45.7925 54.5979 45.9814 54.3232C46.1929 54.0156 46.3766 53.7131 46.5325 53.4158C46.6959 53.1074 46.8682 52.8214 47.0495 52.5577C47.1402 52.4259 47.2322 52.3273 47.3256 52.2621C47.4265 52.1859 47.521 52.178 47.6089 52.2384C47.7077 52.3064 47.7393 52.4252 47.7036 52.5948C47.6569 52.7569 47.6027 52.9299 47.5409 53.114C47.4173 53.482 47.3843 53.8477 47.442 54.211C47.4997 54.5742 47.6216 54.9735 47.8077 55.4089C47.9869 55.8072 48.1517 56.1794 48.3021 56.5255C48.4415 56.864 48.5792 57.1933 48.7152 57.5133C48.8477 57.8148 48.9874 58.1293 49.1344 58.4568C49.2704 58.7768 49.4262 59.1267 49.602 59.5064C49.7133 59.7447 49.8232 59.9497 49.9317 60.1214C50.0477 60.2821 50.1768 60.4356 50.319 60.5818C50.4611 60.7281 50.6421 60.8768 50.8618 61.0278L53.301 62.7047C53.7075 62.9842 54.0739 63.0986 54.4001 63.0477C54.7152 62.9894 55.0658 62.7854 55.4517 62.4359C55.5904 62.3047 55.712 62.2103 55.8164 62.1526C55.9283 62.0839 56.0337 62.0836 56.1326 62.1516C56.1985 62.1969 56.2232 62.2786 56.2068 62.3967C56.1978 62.5039 56.148 62.6233 56.0574 62.7552C55.8761 63.0189 55.6838 63.275 55.4806 63.5236C55.2773 63.7722 55.0833 64.0191 54.8986 64.2642C54.7104 64.4908 54.5333 64.725 54.3671 64.9667C54.2009 65.2084 54.0419 65.4632 53.8902 65.731C53.7274 65.9913 53.5664 66.2608 53.4071 66.5396C53.2588 66.826 53.094 67.101 52.9127 67.3647ZM58.5283 59.4159C58.4011 59.513 58.279 59.5727 58.1618 59.5951C58.0528 59.6281 57.9659 59.6022 57.9011 59.5174C57.8283 59.422 57.8087 59.3195 57.8424 59.2099C57.8867 59.0922 57.9563 58.9636 58.051 58.8241C58.2936 58.5046 58.4613 58.1751 58.5543 57.8356C58.6499 57.4774 58.6491 57.092 58.5521 56.6795C58.3395 55.8521 58.1365 55.0592 57.9431 54.3008C57.7417 53.5319 57.5337 52.7764 57.3191 52.0342C57.1046 51.2921 56.8819 50.5394 56.6512 49.776C56.431 49.0046 56.1866 48.2014 55.9179 47.3664C55.7836 46.9489 55.6688 46.6339 55.5736 46.4214C55.4783 46.2089 55.4143 46.0481 55.3813 45.9391C55.5079 45.7753 55.6238 45.6196 55.7292 45.472C55.8346 45.3244 55.9477 45.1541 56.0687 44.961C56.1604 44.7735 56.2147 44.581 56.2316 44.3835C56.2485 44.186 56.2592 44.0353 56.2636 43.9312C56.2792 43.8858 56.3029 43.8509 56.3347 43.8266C56.3584 43.7917 56.4064 43.7886 56.4786 43.8173C56.559 43.8566 56.634 43.9 56.7038 43.9474C56.7735 43.9947 56.8473 44.0474 56.9252 44.1054C57.7329 44.6796 58.5541 45.2604 59.3886 45.8477C60.2257 46.4164 61.0534 46.9838 61.8718 47.5499C62.682 48.1055 63.4615 48.6426 64.2101 49.1614C64.9612 49.6614 65.6506 50.1247 66.2784 50.5512C66.5923 50.7644 66.8829 50.9032 67.1501 50.9675C67.4279 51.0237 67.688 51.0348 67.9304 51.0006C68.1753 50.9478 68.4239 50.8669 68.6763 50.758C68.8383 50.6846 68.9767 50.646 69.0913 50.6424C69.2059 50.6387 69.2997 50.6845 69.3725 50.7799C69.4211 50.8435 69.4204 50.9195 69.3705 51.0079C69.3313 51.0883 69.2586 51.1689 69.1527 51.2498C68.9619 51.3955 68.7142 51.5764 68.4094 51.7924C68.1152 52.0004 67.8105 52.2164 67.4951 52.4405C67.1716 52.654 66.8881 52.8539 66.6444 53.04C66.4324 53.2019 66.1981 53.3893 65.9413 53.6023C65.6951 53.8071 65.4436 54.016 65.1868 54.2289C64.9406 54.4338 64.7274 54.605 64.5473 54.7426C64.4413 54.8235 64.3338 54.8805 64.2248 54.9134C64.1182 54.9277 64.0366 54.8978 63.98 54.8236C63.9152 54.7388 63.905 54.6376 63.9493 54.5199C63.9855 54.3915 64.0538 54.2723 64.1542 54.162C64.487 53.8071 64.6897 53.5013 64.7621 53.2446C64.8264 52.9774 64.7402 52.7328 64.5036 52.5109C64.3342 52.3551 64.1247 52.1796 63.8749 51.9844C63.6171 51.7787 63.3499 51.5717 63.0734 51.3635C62.7994 51.1365 62.5403 50.9402 62.2962 50.7743C62.2103 50.7057 62.134 50.6717 62.0673 50.6723C61.9925 50.6623 61.8969 50.7018 61.7803 50.7908L58.9195 52.9762C58.8453 53.0328 58.8073 53.1038 58.8054 53.1892C58.7954 53.2639 58.8162 53.3571 58.8678 53.4686C58.9307 53.6388 58.9991 53.8382 59.0731 54.0669C59.1496 54.2769 59.229 54.5015 59.3111 54.7408C59.3957 54.9614 59.4722 55.1714 59.5406 55.3708C59.6197 55.5621 59.6931 55.7241 59.7609 55.8569C59.9265 56.1834 60.1482 56.3748 60.426 56.431C60.7064 56.4685 61.0737 56.3893 61.528 56.1933C61.8707 56.0489 62.0987 56.0509 62.2121 56.1993C62.2606 56.2628 62.264 56.3441 62.2222 56.4432C62.1829 56.5235 62.0997 56.6123 61.9725 56.7094C61.7288 56.8955 61.4664 57.0792 61.1854 57.2603C60.9124 57.4521 60.617 57.6694 60.2991 57.9122C59.9812 58.155 59.6808 58.4097 59.3978 58.6762C59.1254 58.9346 58.8356 59.1811 58.5283 59.4159ZM58.7902 51.9173L60.9994 50.2297C61.1477 50.1164 61.1976 50.028 61.149 49.9644C61.1247 49.9326 61.0992 49.9102 61.0724 49.8971C61.0562 49.8759 61.0267 49.8481 60.9837 49.8138L57.0667 46.9923C56.911 46.8763 56.8172 46.8305 56.7854 46.8547C56.7642 46.8709 56.7798 46.9681 56.832 47.1463L58.3136 51.8535C58.3328 51.9226 58.3546 51.9731 58.3789 52.0049C58.4194 52.0579 58.4742 52.0747 58.5434 52.0554C58.6231 52.0281 58.7054 51.982 58.7902 51.9173ZM77.9275 48.1435C77.0227 48.4217 76.1218 48.5313 75.2248 48.4723C74.3279 48.4134 73.4829 48.2059 72.6899 47.8499C71.9057 47.4772 71.2177 46.9634 70.6257 46.3085C70.0465 45.6496 69.6158 44.8614 69.3336 43.9438C69.0554 43.0389 68.9649 42.1322 69.0621 41.2235C69.1721 40.3108 69.4516 39.4507 69.9007 38.643C70.3459 37.8226 70.947 37.1007 71.7039 36.4774C72.4696 35.8374 73.3814 35.3548 74.4392 35.0295C74.6813 34.9551 74.9886 34.8885 75.3612 34.8297C75.7298 34.7582 76.115 34.6956 76.517 34.6417C76.9189 34.5879 77.2909 34.5502 77.633 34.5287C77.9879 34.5033 78.2663 34.5014 78.4682 34.523C78.5692 34.5338 78.655 34.5632 78.7255 34.6113C78.7922 34.6466 78.8476 34.7132 78.8917 34.8113C79.0847 35.2122 79.2591 35.598 79.4149 35.9686C79.5707 36.3392 79.6917 36.6647 79.7779 36.945C79.8093 37.047 79.8049 37.146 79.7646 37.2421C79.7372 37.3342 79.6788 37.394 79.5896 37.4214C79.4494 37.4645 79.3338 37.4513 79.2426 37.3816C79.1475 37.2993 79.0569 37.2086 78.9706 37.1096C78.7981 36.9115 78.6149 36.7238 78.4208 36.5463C78.2228 36.3561 77.9969 36.1884 77.743 36.0433C77.5764 35.955 77.3568 35.8761 77.0843 35.8064C76.8206 35.7201 76.5011 35.6789 76.1256 35.6827C75.7502 35.6866 75.3139 35.7649 74.8169 35.9177C74.116 36.1333 73.5302 36.4738 73.0595 36.9394C72.585 37.3922 72.2349 37.9322 72.0094 38.5596C71.7838 39.1869 71.669 39.8569 71.6649 40.5696C71.6569 41.2695 71.7607 41.97 71.9762 42.6709C72.2466 43.5503 72.5935 44.3154 73.0169 44.9664C73.4363 45.6047 73.9092 46.1219 74.4356 46.518C74.958 46.9014 75.5152 47.1485 76.1073 47.2594C76.6994 47.3703 77.314 47.3278 77.9512 47.1318C78.41 46.9907 78.7473 46.8173 78.963 46.6115C79.1875 46.389 79.3415 46.2091 79.4248 46.0719C79.5297 45.9141 79.5915 45.7068 79.6102 45.45C79.6289 45.1931 79.5976 44.9098 79.5162 44.6C79.481 44.4853 79.4359 44.3388 79.381 44.1604C79.3389 43.978 79.2904 43.7976 79.2356 43.6192C79.1935 43.4369 79.1548 43.2883 79.1195 43.1736C79.0764 43.0335 79.0137 42.9202 78.9313 42.8339C78.8578 42.731 78.7476 42.6673 78.6005 42.6427C78.4584 42.5888 78.2883 42.5574 78.0903 42.5485C77.8884 42.5269 77.6879 42.5328 77.4889 42.5661C77.2987 42.5827 77.1443 42.6023 77.0257 42.6248C76.9326 42.6395 76.8252 42.6306 76.7037 42.5983C76.5782 42.5531 76.4998 42.4796 76.4685 42.3776C76.4371 42.2757 76.4582 42.1855 76.5317 42.1071C76.618 42.0248 76.6994 41.9719 76.7759 41.9483C77.069 41.8582 77.3704 41.7725 77.6802 41.6912C78.0028 41.606 78.3189 41.5227 78.6287 41.4414C78.9512 41.3562 79.259 41.2685 79.5522 41.1784C79.909 41.0686 80.2556 40.9481 80.5918 40.8168C80.9408 40.6816 81.3001 40.5572 81.6697 40.4435C81.7462 40.42 81.8305 40.422 81.9226 40.4495C82.0236 40.4603 82.0917 40.523 82.127 40.6377C82.1583 40.7397 82.1392 40.8362 82.0696 40.9274C82 41.0185 81.9289 41.0822 81.8563 41.1185C81.5397 41.3135 81.3392 41.5007 81.2548 41.6801C81.1832 41.8555 81.1675 42.0766 81.2077 42.3432C81.2429 42.6393 81.2811 42.8996 81.3222 43.1241C81.3761 43.3446 81.4402 43.576 81.5147 43.8181L81.6969 44.4108C81.7165 44.4745 81.7533 44.526 81.8072 44.5652C81.8738 44.6005 81.9424 44.6422 82.013 44.6902C82.0836 44.7382 82.1478 44.7883 82.2056 44.8402C82.2762 44.8883 82.3213 44.9441 82.3409 45.0079C82.3644 45.0843 82.3644 45.175 82.3408 45.2799C82.3261 45.3681 82.2526 45.4465 82.1202 45.5151C82.0349 45.5553 81.8844 45.6783 81.6687 45.8841C81.453 46.0899 81.1731 46.3364 80.829 46.6236C80.4937 46.8941 80.0824 47.167 79.5951 47.4424C79.1206 47.7138 78.5647 47.9475 77.9275 48.1435ZM87.1216 45.432C86.9749 45.4309 86.8552 45.4033 86.7622 45.3493C86.6826 45.2953 86.6431 45.2283 86.6437 45.1483C86.6451 44.975 86.8193 44.8497 87.1666 44.7723C87.6475 44.6559 87.9886 44.5118 88.1899 44.34C88.4046 44.155 88.5137 43.8425 88.517 43.4025L88.5856 34.3427C88.589 33.8894 88.4981 33.5687 88.3129 33.3806C88.141 33.1927 87.8088 33.0435 87.3163 32.9331C87.1299 32.8917 86.997 32.8373 86.9175 32.7701C86.8381 32.6895 86.7987 32.6092 86.7993 32.5292C86.8 32.4358 86.8405 32.3695 86.9208 32.3301C87.0145 32.2775 87.1347 32.2517 87.2814 32.2528C87.6681 32.2557 88.0347 32.2652 88.3812 32.2811C88.7411 32.2972 89.0877 32.3132 89.4209 32.329C89.7541 32.3449 90.1007 32.3542 90.4607 32.3569C91.074 32.3615 91.7207 32.3598 92.4008 32.3516C93.0942 32.3435 93.7142 32.3415 94.2609 32.3457C94.701 32.3357 95.0611 32.3184 95.3413 32.2938C95.6348 32.2694 95.8083 32.2574 95.8616 32.2578C95.9549 32.2585 96.0481 32.2792 96.1411 32.3199C96.2475 32.3607 96.3069 32.4411 96.3193 32.5612C96.3693 33.0016 96.4327 33.4355 96.5095 33.8627C96.5862 34.29 96.6234 34.6636 96.621 34.9836C96.6201 35.1036 96.586 35.1967 96.5189 35.2628C96.4651 35.3158 96.4049 35.342 96.3383 35.3415C96.2716 35.341 96.2118 35.3205 96.1587 35.2801C96.1058 35.2264 96.0597 35.1527 96.0204 35.0591C95.9161 34.7516 95.8181 34.4842 95.7265 34.2568C95.6349 34.0294 95.5295 33.8553 95.4104 33.7344C95.2385 33.5464 95.0396 33.3982 94.8138 33.2899C94.5879 33.1815 94.315 33.1261 93.995 33.1237L92.1351 33.1096C91.8951 33.1078 91.6745 33.1794 91.4734 33.3246C91.2724 33.4564 91.1709 33.649 91.169 33.9023L91.1393 37.8222C91.1382 37.9688 91.1774 38.0825 91.2568 38.1631C91.3495 38.2438 91.4559 38.2846 91.5758 38.2855L93.4158 38.2994C93.7758 38.3022 94.0299 38.2041 94.178 38.0052C94.3396 37.8064 94.475 37.5341 94.5842 37.1882C94.6796 36.9223 94.8073 36.7899 94.9673 36.7911C95.0339 36.7916 95.0936 36.8321 95.1463 36.9125C95.1992 36.9796 95.2251 37.0731 95.2242 37.1931C95.2099 37.3263 95.1953 37.4862 95.1806 37.6728C95.1658 37.8593 95.1511 38.0459 95.1364 38.2325C95.1349 38.4191 95.1337 38.5858 95.1326 38.7324C95.1314 38.8924 95.13 39.0724 95.1285 39.2724C95.1403 39.4725 95.1454 39.6726 95.1439 39.8726C95.1559 40.0593 95.168 40.2194 95.1803 40.3528C95.1925 40.4996 95.1783 40.6128 95.1377 40.6925C95.1105 40.7723 95.0568 40.8119 94.9768 40.8113C94.7635 40.8097 94.6116 40.6219 94.5211 40.2479C94.4172 39.8737 94.2927 39.5928 94.1474 39.405C94.0022 39.2172 93.8029 39.1224 93.5496 39.1205L91.6696 39.1062C91.4963 39.1049 91.3627 39.1372 91.2689 39.2032C91.1751 39.2692 91.1274 39.3955 91.126 39.5821L91.0972 43.382C91.0939 43.822 91.1849 44.1294 91.3703 44.3041C91.5556 44.4789 91.8416 44.5677 92.2283 44.5706L93.8682 44.583C94.2016 44.5856 94.5018 44.5545 94.769 44.4899C95.0495 44.4253 95.2903 44.3205 95.4914 44.1753C95.7192 44.017 95.9208 43.8052 96.0962 43.5399C96.285 43.2613 96.4673 42.956 96.6431 42.624C96.6973 42.5177 96.7511 42.4515 96.8047 42.4252C96.8583 42.3856 96.9251 42.3661 97.0051 42.3667C97.0717 42.3806 97.118 42.4209 97.1442 42.4878C97.1837 42.5547 97.2031 42.6282 97.2025 42.7082C97.2011 42.8949 97.166 43.1346 97.0971 43.4274C97.0282 43.7203 96.9392 44.0263 96.8301 44.3455C96.7345 44.6514 96.6456 44.9374 96.5636 45.2035C96.5229 45.2965 96.4691 45.3627 96.4021 45.4022C96.335 45.4551 96.2548 45.4811 96.1615 45.4804C95.8415 45.478 95.4282 45.4682 94.9217 45.451C94.4284 45.4473 93.8884 45.4365 93.3019 45.4188C92.7153 45.401 92.1155 45.3831 91.5022 45.3651C90.8889 45.3605 90.3023 45.3561 89.7423 45.3518C89.4623 45.3497 89.1756 45.3542 88.8822 45.3653C88.6021 45.3765 88.3153 45.3877 88.0219 45.3988C87.7284 45.4232 87.4283 45.4343 87.1216 45.432Z" fill="#C83E21"></path>
</svg><style>@media (prefers-color-scheme: light) { :root { filter: none; } }
@media (prefers-color-scheme: dark) { :root { filter: none; } }
</style></svg>